<mxfile host="app.diagrams.net" modified="2024-02-19T22:30:11.167Z" agent="Mozilla/5.0 (Windows NT 10.0; Win64; x64) AppleWebKit/537.36 (KHTML, like Gecko) Chrome/121.0.0.0 Safari/537.36" etag="v1KJt9fDNurlMKh-AOfr" version="23.1.5" type="device">
  <diagram name="Страница — 1" id="ji-LFkbV7oL_Yo4gux3l">
    <mxGraphModel dx="1195" dy="622" grid="1" gridSize="10" guides="1" tooltips="1" connect="1" arrows="1" fold="1" page="1" pageScale="1" pageWidth="827" pageHeight="1169" math="0" shadow="0">
      <root>
        <mxCell id="0" />
        <mxCell id="1" parent="0" />
        <mxCell id="lQW0joM2LPZpcsiNn98G-1" value="Users" style="swimlane;fontStyle=0;childLayout=stackLayout;horizontal=1;startSize=26;horizontalStack=0;resizeParent=1;resizeParentMax=0;resizeLast=0;collapsible=1;marginBottom=0;align=center;fontSize=14;" vertex="1" parent="1">
          <mxGeometry x="70" y="100" width="160" height="146" as="geometry" />
        </mxCell>
        <mxCell id="lQW0joM2LPZpcsiNn98G-2" value="Id" style="text;strokeColor=none;fillColor=none;spacingLeft=4;spacingRight=4;overflow=hidden;rotatable=0;points=[[0,0.5],[1,0.5]];portConstraint=eastwest;fontSize=12;whiteSpace=wrap;html=1;" vertex="1" parent="lQW0joM2LPZpcsiNn98G-1">
          <mxGeometry y="26" width="160" height="30" as="geometry" />
        </mxCell>
        <mxCell id="lQW0joM2LPZpcsiNn98G-3" value="email" style="text;strokeColor=none;fillColor=none;spacingLeft=4;spacingRight=4;overflow=hidden;rotatable=0;points=[[0,0.5],[1,0.5]];portConstraint=eastwest;fontSize=12;whiteSpace=wrap;html=1;" vertex="1" parent="lQW0joM2LPZpcsiNn98G-1">
          <mxGeometry y="56" width="160" height="30" as="geometry" />
        </mxCell>
        <mxCell id="lQW0joM2LPZpcsiNn98G-4" value="password" style="text;strokeColor=none;fillColor=none;spacingLeft=4;spacingRight=4;overflow=hidden;rotatable=0;points=[[0,0.5],[1,0.5]];portConstraint=eastwest;fontSize=12;whiteSpace=wrap;html=1;" vertex="1" parent="lQW0joM2LPZpcsiNn98G-1">
          <mxGeometry y="86" width="160" height="30" as="geometry" />
        </mxCell>
        <mxCell id="lQW0joM2LPZpcsiNn98G-6" value="role&amp;nbsp;" style="text;strokeColor=none;fillColor=none;spacingLeft=4;spacingRight=4;overflow=hidden;rotatable=0;points=[[0,0.5],[1,0.5]];portConstraint=eastwest;fontSize=12;whiteSpace=wrap;html=1;" vertex="1" parent="lQW0joM2LPZpcsiNn98G-1">
          <mxGeometry y="116" width="160" height="30" as="geometry" />
        </mxCell>
        <mxCell id="lQW0joM2LPZpcsiNn98G-8" value="Books" style="swimlane;fontStyle=0;childLayout=stackLayout;horizontal=1;startSize=26;horizontalStack=0;resizeParent=1;resizeParentMax=0;resizeLast=0;collapsible=1;marginBottom=0;align=center;fontSize=14;" vertex="1" parent="1">
          <mxGeometry x="570" y="130" width="160" height="146" as="geometry" />
        </mxCell>
        <mxCell id="lQW0joM2LPZpcsiNn98G-9" value="Id" style="text;strokeColor=none;fillColor=none;spacingLeft=4;spacingRight=4;overflow=hidden;rotatable=0;points=[[0,0.5],[1,0.5]];portConstraint=eastwest;fontSize=12;whiteSpace=wrap;html=1;" vertex="1" parent="lQW0joM2LPZpcsiNn98G-8">
          <mxGeometry y="26" width="160" height="30" as="geometry" />
        </mxCell>
        <mxCell id="lQW0joM2LPZpcsiNn98G-10" value="title" style="text;strokeColor=none;fillColor=none;spacingLeft=4;spacingRight=4;overflow=hidden;rotatable=0;points=[[0,0.5],[1,0.5]];portConstraint=eastwest;fontSize=12;whiteSpace=wrap;html=1;" vertex="1" parent="lQW0joM2LPZpcsiNn98G-8">
          <mxGeometry y="56" width="160" height="30" as="geometry" />
        </mxCell>
        <mxCell id="lQW0joM2LPZpcsiNn98G-51" value="description" style="text;strokeColor=none;fillColor=none;spacingLeft=4;spacingRight=4;overflow=hidden;rotatable=0;points=[[0,0.5],[1,0.5]];portConstraint=eastwest;fontSize=12;whiteSpace=wrap;html=1;" vertex="1" parent="lQW0joM2LPZpcsiNn98G-8">
          <mxGeometry y="86" width="160" height="30" as="geometry" />
        </mxCell>
        <mxCell id="lQW0joM2LPZpcsiNn98G-11" value="picture" style="text;strokeColor=none;fillColor=none;spacingLeft=4;spacingRight=4;overflow=hidden;rotatable=0;points=[[0,0.5],[1,0.5]];portConstraint=eastwest;fontSize=12;whiteSpace=wrap;html=1;" vertex="1" parent="lQW0joM2LPZpcsiNn98G-8">
          <mxGeometry y="116" width="160" height="30" as="geometry" />
        </mxCell>
        <mxCell id="lQW0joM2LPZpcsiNn98G-16" value="Authors" style="swimlane;fontStyle=0;childLayout=stackLayout;horizontal=1;startSize=26;horizontalStack=0;resizeParent=1;resizeParentMax=0;resizeLast=0;collapsible=1;marginBottom=0;align=center;fontSize=14;" vertex="1" parent="1">
          <mxGeometry x="30" y="430" width="160" height="116" as="geometry" />
        </mxCell>
        <mxCell id="lQW0joM2LPZpcsiNn98G-17" value="id" style="text;strokeColor=none;fillColor=none;spacingLeft=4;spacingRight=4;overflow=hidden;rotatable=0;points=[[0,0.5],[1,0.5]];portConstraint=eastwest;fontSize=12;whiteSpace=wrap;html=1;" vertex="1" parent="lQW0joM2LPZpcsiNn98G-16">
          <mxGeometry y="26" width="160" height="30" as="geometry" />
        </mxCell>
        <mxCell id="lQW0joM2LPZpcsiNn98G-18" value="first_name" style="text;strokeColor=none;fillColor=none;spacingLeft=4;spacingRight=4;overflow=hidden;rotatable=0;points=[[0,0.5],[1,0.5]];portConstraint=eastwest;fontSize=12;whiteSpace=wrap;html=1;" vertex="1" parent="lQW0joM2LPZpcsiNn98G-16">
          <mxGeometry y="56" width="160" height="30" as="geometry" />
        </mxCell>
        <mxCell id="lQW0joM2LPZpcsiNn98G-19" value="last_name" style="text;strokeColor=none;fillColor=none;spacingLeft=4;spacingRight=4;overflow=hidden;rotatable=0;points=[[0,0.5],[1,0.5]];portConstraint=eastwest;fontSize=12;whiteSpace=wrap;html=1;" vertex="1" parent="lQW0joM2LPZpcsiNn98G-16">
          <mxGeometry y="86" width="160" height="30" as="geometry" />
        </mxCell>
        <mxCell id="lQW0joM2LPZpcsiNn98G-26" value="Favorites" style="swimlane;fontStyle=0;childLayout=stackLayout;horizontal=1;startSize=26;horizontalStack=0;resizeParent=1;resizeParentMax=0;resizeLast=0;collapsible=1;marginBottom=0;align=center;fontSize=14;" vertex="1" parent="1">
          <mxGeometry x="320" y="140" width="160" height="116" as="geometry" />
        </mxCell>
        <mxCell id="lQW0joM2LPZpcsiNn98G-27" value="id" style="text;strokeColor=none;fillColor=none;spacingLeft=4;spacingRight=4;overflow=hidden;rotatable=0;points=[[0,0.5],[1,0.5]];portConstraint=eastwest;fontSize=12;whiteSpace=wrap;html=1;" vertex="1" parent="lQW0joM2LPZpcsiNn98G-26">
          <mxGeometry y="26" width="160" height="30" as="geometry" />
        </mxCell>
        <mxCell id="lQW0joM2LPZpcsiNn98G-38" value="User_id" style="text;strokeColor=none;fillColor=none;spacingLeft=4;spacingRight=4;overflow=hidden;rotatable=0;points=[[0,0.5],[1,0.5]];portConstraint=eastwest;fontSize=12;whiteSpace=wrap;html=1;" vertex="1" parent="lQW0joM2LPZpcsiNn98G-26">
          <mxGeometry y="56" width="160" height="30" as="geometry" />
        </mxCell>
        <mxCell id="lQW0joM2LPZpcsiNn98G-28" value="Book_id" style="text;strokeColor=none;fillColor=none;spacingLeft=4;spacingRight=4;overflow=hidden;rotatable=0;points=[[0,0.5],[1,0.5]];portConstraint=eastwest;fontSize=12;whiteSpace=wrap;html=1;" vertex="1" parent="lQW0joM2LPZpcsiNn98G-26">
          <mxGeometry y="86" width="160" height="30" as="geometry" />
        </mxCell>
        <mxCell id="lQW0joM2LPZpcsiNn98G-30" value="Genre" style="swimlane;fontStyle=0;childLayout=stackLayout;horizontal=1;startSize=26;horizontalStack=0;resizeParent=1;resizeParentMax=0;resizeLast=0;collapsible=1;marginBottom=0;align=center;fontSize=14;" vertex="1" parent="1">
          <mxGeometry x="750" y="430" width="160" height="86" as="geometry" />
        </mxCell>
        <mxCell id="lQW0joM2LPZpcsiNn98G-31" value="id" style="text;strokeColor=none;fillColor=none;spacingLeft=4;spacingRight=4;overflow=hidden;rotatable=0;points=[[0,0.5],[1,0.5]];portConstraint=eastwest;fontSize=12;whiteSpace=wrap;html=1;" vertex="1" parent="lQW0joM2LPZpcsiNn98G-30">
          <mxGeometry y="26" width="160" height="30" as="geometry" />
        </mxCell>
        <mxCell id="lQW0joM2LPZpcsiNn98G-32" value="Name" style="text;strokeColor=none;fillColor=none;spacingLeft=4;spacingRight=4;overflow=hidden;rotatable=0;points=[[0,0.5],[1,0.5]];portConstraint=eastwest;fontSize=12;whiteSpace=wrap;html=1;" vertex="1" parent="lQW0joM2LPZpcsiNn98G-30">
          <mxGeometry y="56" width="160" height="30" as="geometry" />
        </mxCell>
        <mxCell id="lQW0joM2LPZpcsiNn98G-34" value="BooksAuthor" style="swimlane;fontStyle=0;childLayout=stackLayout;horizontal=1;startSize=26;horizontalStack=0;resizeParent=1;resizeParentMax=0;resizeLast=0;collapsible=1;marginBottom=0;align=center;fontSize=14;" vertex="1" parent="1">
          <mxGeometry x="270" y="370" width="160" height="116" as="geometry" />
        </mxCell>
        <mxCell id="lQW0joM2LPZpcsiNn98G-35" value="id" style="text;strokeColor=none;fillColor=none;spacingLeft=4;spacingRight=4;overflow=hidden;rotatable=0;points=[[0,0.5],[1,0.5]];portConstraint=eastwest;fontSize=12;whiteSpace=wrap;html=1;" vertex="1" parent="lQW0joM2LPZpcsiNn98G-34">
          <mxGeometry y="26" width="160" height="30" as="geometry" />
        </mxCell>
        <mxCell id="lQW0joM2LPZpcsiNn98G-36" value="Author_id" style="text;strokeColor=none;fillColor=none;spacingLeft=4;spacingRight=4;overflow=hidden;rotatable=0;points=[[0,0.5],[1,0.5]];portConstraint=eastwest;fontSize=12;whiteSpace=wrap;html=1;" vertex="1" parent="lQW0joM2LPZpcsiNn98G-34">
          <mxGeometry y="56" width="160" height="30" as="geometry" />
        </mxCell>
        <mxCell id="lQW0joM2LPZpcsiNn98G-37" value="Book_id" style="text;strokeColor=none;fillColor=none;spacingLeft=4;spacingRight=4;overflow=hidden;rotatable=0;points=[[0,0.5],[1,0.5]];portConstraint=eastwest;fontSize=12;whiteSpace=wrap;html=1;" vertex="1" parent="lQW0joM2LPZpcsiNn98G-34">
          <mxGeometry y="86" width="160" height="30" as="geometry" />
        </mxCell>
        <mxCell id="lQW0joM2LPZpcsiNn98G-39" value="BooksGenre" style="swimlane;fontStyle=0;childLayout=stackLayout;horizontal=1;startSize=26;horizontalStack=0;resizeParent=1;resizeParentMax=0;resizeLast=0;collapsible=1;marginBottom=0;align=center;fontSize=14;" vertex="1" parent="1">
          <mxGeometry x="500" y="350" width="160" height="116" as="geometry" />
        </mxCell>
        <mxCell id="lQW0joM2LPZpcsiNn98G-40" value="id" style="text;strokeColor=none;fillColor=none;spacingLeft=4;spacingRight=4;overflow=hidden;rotatable=0;points=[[0,0.5],[1,0.5]];portConstraint=eastwest;fontSize=12;whiteSpace=wrap;html=1;" vertex="1" parent="lQW0joM2LPZpcsiNn98G-39">
          <mxGeometry y="26" width="160" height="30" as="geometry" />
        </mxCell>
        <mxCell id="lQW0joM2LPZpcsiNn98G-41" value="Genre_id" style="text;strokeColor=none;fillColor=none;spacingLeft=4;spacingRight=4;overflow=hidden;rotatable=0;points=[[0,0.5],[1,0.5]];portConstraint=eastwest;fontSize=12;whiteSpace=wrap;html=1;" vertex="1" parent="lQW0joM2LPZpcsiNn98G-39">
          <mxGeometry y="56" width="160" height="30" as="geometry" />
        </mxCell>
        <mxCell id="lQW0joM2LPZpcsiNn98G-42" value="Book_id" style="text;strokeColor=none;fillColor=none;spacingLeft=4;spacingRight=4;overflow=hidden;rotatable=0;points=[[0,0.5],[1,0.5]];portConstraint=eastwest;fontSize=12;whiteSpace=wrap;html=1;" vertex="1" parent="lQW0joM2LPZpcsiNn98G-39">
          <mxGeometry y="86" width="160" height="30" as="geometry" />
        </mxCell>
        <mxCell id="lQW0joM2LPZpcsiNn98G-43" value="" style="edgeStyle=entityRelationEdgeStyle;fontSize=12;html=1;endArrow=ERmany;rounded=0;exitX=1;exitY=0.5;exitDx=0;exitDy=0;entryX=-0.022;entryY=0.172;entryDx=0;entryDy=0;entryPerimeter=0;startArrow=none;startFill=0;endFill=0;" edge="1" parent="1" source="lQW0joM2LPZpcsiNn98G-3" target="lQW0joM2LPZpcsiNn98G-26">
          <mxGeometry width="100" height="100" relative="1" as="geometry">
            <mxPoint x="500" y="620" as="sourcePoint" />
            <mxPoint x="600" y="520" as="targetPoint" />
            <Array as="points">
              <mxPoint x="280" y="240" />
            </Array>
          </mxGeometry>
        </mxCell>
        <mxCell id="lQW0joM2LPZpcsiNn98G-46" value="" style="edgeStyle=entityRelationEdgeStyle;fontSize=12;html=1;endArrow=ERmany;rounded=0;entryX=1;entryY=0.5;entryDx=0;entryDy=0;exitX=-0.021;exitY=0.067;exitDx=0;exitDy=0;exitPerimeter=0;startArrow=none;startFill=0;endFill=0;" edge="1" parent="1" source="lQW0joM2LPZpcsiNn98G-9" target="lQW0joM2LPZpcsiNn98G-27">
          <mxGeometry width="100" height="100" relative="1" as="geometry">
            <mxPoint x="520" y="210" as="sourcePoint" />
            <mxPoint x="596" y="172.5" as="targetPoint" />
            <Array as="points">
              <mxPoint x="560" y="252.5" />
            </Array>
          </mxGeometry>
        </mxCell>
        <mxCell id="lQW0joM2LPZpcsiNn98G-47" value="" style="edgeStyle=entityRelationEdgeStyle;fontSize=12;html=1;endArrow=none;startArrow=ERmany;rounded=0;exitX=1;exitY=0.25;exitDx=0;exitDy=0;endFill=0;" edge="1" parent="1" source="lQW0joM2LPZpcsiNn98G-39" target="lQW0joM2LPZpcsiNn98G-11">
          <mxGeometry width="100" height="100" relative="1" as="geometry">
            <mxPoint x="670.0000000000001" y="468.5799999999999" as="sourcePoint" />
            <mxPoint x="741.6" y="327.40999999999997" as="targetPoint" />
            <Array as="points">
              <mxPoint x="700" y="350" />
              <mxPoint x="740" y="396.40999999999997" />
              <mxPoint x="740" y="406.40999999999997" />
              <mxPoint x="760" y="336.40999999999997" />
              <mxPoint x="770" y="396.40999999999997" />
            </Array>
          </mxGeometry>
        </mxCell>
        <mxCell id="lQW0joM2LPZpcsiNn98G-48" value="" style="edgeStyle=entityRelationEdgeStyle;fontSize=12;html=1;endArrow=none;startArrow=ERmany;rounded=0;exitX=1.01;exitY=-0.072;exitDx=0;exitDy=0;entryX=0;entryY=0.5;entryDx=0;entryDy=0;exitPerimeter=0;endFill=0;" edge="1" parent="1" source="lQW0joM2LPZpcsiNn98G-42" target="lQW0joM2LPZpcsiNn98G-31">
          <mxGeometry width="100" height="100" relative="1" as="geometry">
            <mxPoint x="670" y="728" as="sourcePoint" />
            <mxPoint x="740" y="585" as="targetPoint" />
            <Array as="points">
              <mxPoint x="710" y="704" />
              <mxPoint x="750" y="750.41" />
              <mxPoint x="750" y="760.41" />
              <mxPoint x="770" y="690.41" />
              <mxPoint x="780" y="750.41" />
            </Array>
          </mxGeometry>
        </mxCell>
        <mxCell id="lQW0joM2LPZpcsiNn98G-49" value="" style="edgeStyle=entityRelationEdgeStyle;fontSize=12;html=1;endArrow=ERmany;startArrow=none;rounded=0;exitX=1.01;exitY=0.205;exitDx=0;exitDy=0;exitPerimeter=0;entryX=-0.005;entryY=0.126;entryDx=0;entryDy=0;entryPerimeter=0;startFill=0;endFill=0;" edge="1" parent="1" target="lQW0joM2LPZpcsiNn98G-34">
          <mxGeometry width="100" height="100" relative="1" as="geometry">
            <mxPoint x="191.60000000000014" y="477.78" as="sourcePoint" />
            <mxPoint x="200" y="270" as="targetPoint" />
            <Array as="points">
              <mxPoint x="170" y="389" />
              <mxPoint x="210" y="435.40999999999997" />
              <mxPoint x="210" y="445.40999999999997" />
              <mxPoint x="230" y="375.40999999999997" />
              <mxPoint x="240" y="435.40999999999997" />
            </Array>
          </mxGeometry>
        </mxCell>
        <mxCell id="lQW0joM2LPZpcsiNn98G-50" value="" style="edgeStyle=entityRelationEdgeStyle;fontSize=12;html=1;endArrow=none;startArrow=ERmany;rounded=0;exitX=0.995;exitY=0.119;exitDx=0;exitDy=0;exitPerimeter=0;entryX=-0.005;entryY=0.039;entryDx=0;entryDy=0;entryPerimeter=0;endFill=0;" edge="1" parent="1" source="lQW0joM2LPZpcsiNn98G-34" target="lQW0joM2LPZpcsiNn98G-11">
          <mxGeometry width="100" height="100" relative="1" as="geometry">
            <mxPoint x="430.0000000000001" y="372.78" as="sourcePoint" />
            <mxPoint x="507.4" y="260" as="targetPoint" />
            <Array as="points">
              <mxPoint x="408.4" y="284" />
              <mxPoint x="448.4" y="330.40999999999997" />
              <mxPoint x="448.4" y="340.40999999999997" />
              <mxPoint x="468.4" y="270.40999999999997" />
              <mxPoint x="478.4" y="330.40999999999997" />
            </Array>
          </mxGeometry>
        </mxCell>
      </root>
    </mxGraphModel>
  </diagram>
</mxfile>
